<?xml version="1.0" encoding="utf-8"?>
<!-- Generator: Adobe Illustrator 19.0.0, SVG Export Plug-In . SVG Version: 6.00 Build 0)  -->
<svg version="1.1" id="Layer_1" xmlns="http://www.w3.org/2000/svg" xmlns:xlink="http://www.w3.org/1999/xlink" x="0px" y="0px"
	 viewBox="416 -616 1792 1792" style="enable-background:new 416 -616 1792 1792;" xml:space="preserve">
<path d="M1504,640v240c0,10.7-4,20-12,28s-17.3,12-28,12h-240c-10.7,0-20-4-28-12s-12-17.3-12-28V640c0-10.7,4-20,12-28
	s17.3-12,28-12h240c10.7,0,20,4,28,12S1504,629.3,1504,640z M1820,40c0,36-5.2,69.7-15.5,101s-22,56.8-35,76.5s-31.3,39.5-55,59.5
	s-42.8,34.5-57.5,43.5s-35,20.8-61,35.5c-27.3,15.3-50.2,37-68.5,65s-27.5,50.3-27.5,67c0,11.3-4,22.2-12,32.5s-17.3,15.5-28,15.5
	h-240c-10,0-18.5-6.2-25.5-18.5S1184,492.7,1184,480v-45c0-55.3,21.7-107.5,65-156.5s91-85.2,143-108.5c39.3-18,67.3-36.7,84-56
	s25-44.7,25-76c0-28-15.5-52.7-46.5-74s-66.8-32-107.5-32c-43.3,0-79.3,9.7-108,29c-23.3,16.7-59,55-107,115c-8.7,10.7-19,16-31,16
	c-8,0-16.3-2.7-25-8L912-41c-8.7-6.7-13.8-15-15.5-25s0.2-19.3,5.5-28c106.7-177.3,261.3-266,464-266c53.3,0,107,10.3,161,31
	s102.7,48.3,146,83s78.7,77.2,106,127.5S1820-15.3,1820,40z"/>
</svg>
